HIERARCHY
ROOT Hips
{
	OFFSET 0.000000 0.000000 0.000000
	CHANNELS 6 Xposition Yposition Zposition Zrotation Yrotation Xrotation 
	JOINT LHipJoint
	{
		OFFSET 0.000000 0.000000 0.000000
		CHANNELS 3 Zrotation Yrotation Xrotation
		JOINT LeftUpLeg
		{
			OFFSET 1.363060 -1.794630 0.839290
			CHANNELS 3 Zrotation Yrotation Xrotation
			JOINT LeftLeg
			{
				OFFSET 2.448110 -6.726130 0.000000
				CHANNELS 3 Zrotation Yrotation Xrotation
				JOINT LeftFoot
				{
					OFFSET 2.562200 -7.039590 0.000000
					CHANNELS 3 Zrotation Yrotation Xrotation
					JOINT LeftToeBase
					{
						OFFSET 0.157640 -0.433110 2.322550
						CHANNELS 3 Zrotation Yrotation Xrotation
						End Site
						{
							OFFSET 0.000000 0.000000 0.000000
						}
					}
				}
			}
		}
	}
	JOINT RHipJoint
	{
		OFFSET 0.000000 0.000000 0.000000
		CHANNELS 3 Zrotation Yrotation Xrotation
		JOINT RightUpLeg
		{
			OFFSET -1.305520 -1.794630 0.839290
			CHANNELS 3 Zrotation Yrotation Xrotation
			JOINT RightLeg
			{
				OFFSET -2.542530 -6.985550 0.000000
				CHANNELS 3 Zrotation Yrotation Xrotation
				JOINT RightFoot
				{
					OFFSET -2.568260 -7.056230 0.000000
					CHANNELS 3 Zrotation Yrotation Xrotation
					JOINT RightToeBase
					{
						OFFSET -0.164730 -0.452590 2.363150
						CHANNELS 3 Zrotation Yrotation Xrotation
						End Site
						{
							OFFSET 0.000000 0.000000 0.000000
						}
					}
				}
			}
		}
	}
}
MOTION
Frames: 14
Frame Time: 0.008333
3.189988 17.198282 0.866360 -170.709769 -85.092001 -175.607443 -11.392258 1.769346 1.104123 -4.089113 17.501529 -16.708016 -2.666892 -1.379978 -4.146773 0.423783 3.845200 3.364194 0.925000 -0.000000 -37.112900 9.371047 -1.613949 2.931095 3.908990 -2.338205 -13.472765 2.522522 1.705925 -0.785588 -0.087595 -4.341727 -1.504814 -1.701200 0.000000 -43.636000
3.190189 17.198505 0.865720 -170.573840 -85.426985 -175.769513 -11.377464 1.778441 1.161521 -4.093244 17.250679 -16.713670 -2.662836 -1.385329 -4.153625 0.411926 3.769639 3.412416 0.917500 -0.000000 -37.116201 9.387445 -1.623879 2.903555 3.905745 -2.518094 -13.432342 2.509049 1.702160 -0.744707 -0.098105 -4.489006 -1.577859 -1.733600 -0.000000 -43.607100
3.190875 17.198798 0.864997 -170.403786 -85.762494 -175.976080 -11.362651 1.786981 1.216278 -4.093021 17.004941 -16.707541 -2.658437 -1.390448 -4.159703 0.399982 3.695196 3.462293 0.910000 0.000000 -37.117199 9.404378 -1.635267 2.875075 3.902021 -2.696742 -13.378421 2.495057 1.697566 -0.707906 -0.109042 -4.636431 -1.646829 -1.765500 0.000001 -43.574900
3.192114 17.199160 0.864142 -170.205983 -86.098953 -176.220793 -11.347840 1.794952 1.268977 -4.088938 16.760970 -16.688356 -2.653410 -1.395544 -4.166976 0.388276 3.625033 3.514275 0.903300 0.000000 -37.115800 9.421768 -1.648115 2.845966 3.896681 -2.873043 -13.311952 2.480282 1.692008 -0.673857 -0.120639 -4.785164 -1.713512 -1.797000 0.000001 -43.539601
3.193943 17.199576 0.863159 -169.977710 -86.435935 -176.506588 -11.333026 1.802497 1.319630 -4.081551 16.519204 -16.656101 -2.647817 -1.400540 -4.174787 0.376800 3.558990 3.568196 0.897400 0.000000 -37.111199 9.439646 -1.662395 2.816377 3.889223 -3.046787 -13.233273 2.464653 1.685433 -0.641882 -0.132733 -4.935355 -1.778270 -1.828401 0.000000 -43.500300
3.196429 17.200011 0.862009 -169.734994 -86.773237 -176.818121 -11.318427 1.809586 1.368547 -4.071241 16.276011 -16.607527 -2.641217 -1.405635 -4.186403 0.366042 3.501646 3.624541 0.893200 -0.000000 -37.102800 9.457873 -1.677954 2.785833 3.878347 -3.218640 -13.141978 2.448019 1.677611 -0.610764 -0.145339 -5.086507 -1.842355 -1.859300 -0.000000 -43.457799
3.199546 17.200506 0.860758 -169.429601 -87.108329 -177.201076 -11.303370 1.816250 1.415231 -4.060113 16.041681 -16.554391 -2.635012 -1.410368 -4.191868 0.355002 3.442748 3.679464 0.888400 -0.000000 -37.090400 9.476624 -1.694996 2.756904 3.865727 -3.383454 -13.042280 2.430469 1.669201 -0.582346 -0.158589 -5.241828 -1.904687 -1.890700 0.000000 -43.408800
3.203391 17.201002 0.859348 -169.138351 -87.441586 -177.581458 -11.289072 1.822159 1.459926 -4.047120 15.803408 -16.481736 -2.627384 -1.415295 -4.203976 0.345261 3.397890 3.737367 0.886300 -0.000000 -37.073800 9.495273 -1.712996 2.726643 3.847588 -3.545848 -12.930506 2.411830 1.659276 -0.554009 -0.172301 -5.396217 -1.967027 -1.921200 0.000000 -43.357199
3.207923 17.201521 0.857807 -168.813327 -87.769575 -178.003170 -11.274933 1.827181 1.502017 -4.034349 15.570841 -16.401423 -2.619588 -1.420014 -4.213745 0.336043 3.358785 3.794857 0.885100 0.000000 -37.052601 9.513926 -1.732109 2.697511 3.825815 -3.700115 -12.811245 2.392246 1.648508 -0.528341 -0.186604 -5.552683 -2.026907 -1.951800 0.000000 -43.299600
3.213134 17.202092 0.856162 -168.460155 -88.090376 -178.459504 -11.261212 1.830754 1.540316 -4.022667 15.347827 -16.315384 -2.611967 -1.424370 -4.218968 0.327176 3.323445 3.850522 0.884400 -0.000000 -37.027701 9.532287 -1.752143 2.669447 3.800265 -3.845033 -12.685335 2.371812 1.636863 -0.505582 -0.201608 -5.710018 -2.084213 -1.982000 -0.000000 -43.237300
3.219101 17.202701 0.854423 -168.129903 -88.402439 -178.898971 -11.248785 1.832201 1.574096 -4.012244 15.130801 -16.220021 -2.603829 -1.428435 -4.223822 0.319416 3.298903 3.906495 0.885700 0.000000 -36.998700 9.549631 -1.772659 2.641295 3.769559 -3.980433 -12.552572 2.350567 1.624091 -0.486591 -0.217214 -5.866297 -2.137389 -2.011500 -0.000000 -43.171100
3.225733 17.203372 0.852558 -167.910341 -88.705192 -179.230227 -11.238995 1.830616 1.602057 -4.004148 14.922865 -16.118270 -2.595487 -1.432119 -4.226358 0.312653 3.283872 3.962300 0.888500 -0.000000 -36.966100 9.564627 -1.793751 2.613102 3.733551 -4.104431 -12.414750 2.328684 1.610201 -0.472173 -0.233614 -6.020566 -2.185194 -2.040000 0.000000 -43.101901
3.233120 17.204170 0.850616 -167.997543 -89.000357 -179.255749 -11.234147 1.824328 1.622434 -4.000739 14.730595 -16.018831 -2.587769 -1.435223 -4.220495 0.306287 3.272411 4.016395 0.891900 0.000000 -36.930800 9.574702 -1.815917 2.585797 3.693084 -4.213663 -12.275417 2.306289 1.595305 -0.464046 -0.250935 -6.174683 -2.225701 -2.068200 0.000000 -43.028799
3.241267 17.205066 0.848499 -113.011926 -89.181734 125.648096 -10.785713 1.749051 1.593352 -3.757000 14.510012 -15.891058 -2.566834 -1.502490 -4.168406 0.267318 3.202709 4.095947 0.900000 0.000000 -36.891800 10.018193 -1.908807 2.607040 3.903172 -4.348555 -12.160162 2.299236 1.513106 -0.516269 -0.302074 -6.402524 -2.275947 -2.093600 -0.000000 -42.957500
